<?xml version="1.0" encoding="UTF-8" standalone="no"?>
<!DOCTYPE svg PUBLIC "-//W3C//DTD SVG 1.1//EN"
 "http://www.w3.org/Graphics/SVG/1.1/DTD/svg11.dtd">
<!-- Generated by graphviz version 9.0.0 (0)
 -->
<!-- Title: finite_state_machine Pages: 1 -->
<svg width="7200pt" height="2334pt"
 viewBox="0.00 0.00 7200.00 2334.32" xmlns="http://www.w3.org/2000/svg" xmlns:xlink="http://www.w3.org/1999/xlink">
<g id="graph0" class="graph" transform="scale(4.30686 4.30686) rotate(0) translate(4 538)">
<title>finite_state_machine</title>
<polygon fill="white" stroke="none" points="-4,4 -4,-538 1667.75,-538 1667.75,4 -4,4"/>
<!-- 1 -->
<g id="node1" class="node">
<title>1</title>
<polygon fill="none" stroke="black" points="118,-150 0,-150 0,-114 118,-114 118,-150"/>
<text text-anchor="middle" x="59" y="-126.2" font-family="Helvetica,Arial,sans-serif" font-size="14.00">New York Airport</text>
</g>
<!-- 2 -->
<g id="node2" class="node">
<title>2</title>
<polygon fill="none" stroke="black" points="284,-225 176.5,-225 176.5,-189 284,-189 284,-225"/>
<text text-anchor="middle" x="230.25" y="-201.2" font-family="Helvetica,Arial,sans-serif" font-size="14.00">Lisbona Airport</text>
</g>
<!-- 1&#45;&gt;2 -->
<g id="edge5" class="edge">
<title>1&#45;&gt;2</title>
<path fill="none" stroke="black" d="M82.75,-150.27C97.25,-161.13 116.86,-174.42 136,-183 145.3,-187.17 155.45,-190.71 165.53,-193.69"/>
<polygon fill="black" stroke="black" points="164.37,-197 174.94,-196.3 166.24,-190.26 164.37,-197"/>
<text text-anchor="middle" x="147.25" y="-192.7" font-family="Helvetica,Arial,sans-serif" font-size="14.00">721</text>
</g>
<!-- 4 -->
<g id="node4" class="node">
<title>4</title>
<polygon fill="none" stroke="black" points="632.12,-371 526.88,-371 526.88,-335 632.12,-335 632.12,-371"/>
<text text-anchor="middle" x="579.5" y="-347.2" font-family="Helvetica,Arial,sans-serif" font-size="14.00">London Airport</text>
</g>
<!-- 1&#45;&gt;4 -->
<g id="edge4" class="edge">
<title>1&#45;&gt;4</title>
<path fill="none" stroke="black" d="M75.4,-150.38C89.97,-167.11 112.97,-191.88 136,-210 152.44,-222.94 158.04,-224.14 176.5,-234 302.12,-301.08 330.46,-334.82 470.25,-362 484.71,-364.81 500.42,-365.07 515.27,-364.07"/>
<polygon fill="black" stroke="black" points="515.27,-367.59 524.92,-363.22 514.65,-360.61 515.27,-367.59"/>
<text text-anchor="middle" x="317" y="-320.7" font-family="Helvetica,Arial,sans-serif" font-size="14.00">1121</text>
</g>
<!-- 11 -->
<g id="node11" class="node">
<title>11</title>
<polygon fill="none" stroke="black" points="640.75,-150 518.25,-150 518.25,-114 640.75,-114 640.75,-150"/>
<text text-anchor="middle" x="579.5" y="-126.2" font-family="Helvetica,Arial,sans-serif" font-size="14.00">Sao Paulo Airport</text>
</g>
<!-- 1&#45;&gt;11 -->
<g id="edge1" class="edge">
<title>1&#45;&gt;11</title>
<path fill="none" stroke="black" d="M118.46,-120.96C124.38,-119.92 130.3,-118.92 136,-118 209.53,-106.14 227.69,-100.12 302,-95 390.49,-88.9 412.63,-104.18 500.25,-118 502.4,-118.34 504.58,-118.69 506.78,-119.05"/>
<polygon fill="black" stroke="black" points="505.95,-122.46 516.39,-120.65 507.1,-115.55 505.95,-122.46"/>
<text text-anchor="middle" x="317" y="-96.7" font-family="Helvetica,Arial,sans-serif" font-size="14.00">410</text>
</g>
<!-- 1&#45;&gt;11 -->
<g id="edge2" class="edge">
<title>1&#45;&gt;11</title>
<path fill="none" stroke="black" d="M107.01,-113.6C128.01,-105.97 153.22,-97.61 176.5,-92 295.65,-63.27 332.81,-61.51 452.25,-89 475.12,-94.26 499.66,-102.1 520.97,-109.64"/>
<polygon fill="black" stroke="black" points="519.78,-112.93 530.38,-113.03 522.16,-106.35 519.78,-112.93"/>
<text text-anchor="middle" x="317" y="-70.7" font-family="Helvetica,Arial,sans-serif" font-size="14.00">511</text>
</g>
<!-- 2&#45;&gt;1 -->
<g id="edge6" class="edge">
<title>2&#45;&gt;1</title>
<path fill="none" stroke="black" d="M202.18,-188.51C189.33,-180.27 173.52,-170.89 158.5,-164 149.2,-159.73 139.16,-155.78 129.18,-152.22"/>
<polygon fill="black" stroke="black" points="130.44,-148.95 119.84,-149 128.15,-155.56 130.44,-148.95"/>
<text text-anchor="middle" x="147.25" y="-165.7" font-family="Helvetica,Arial,sans-serif" font-size="14.00">801</text>
</g>
<!-- 3 -->
<g id="node3" class="node">
<title>3</title>
<polygon fill="none" stroke="black" points="452.25,-304 350,-304 350,-268 452.25,-268 452.25,-304"/>
<text text-anchor="middle" x="401.12" y="-280.2" font-family="Helvetica,Arial,sans-serif" font-size="14.00">Madrid Airport</text>
</g>
<!-- 2&#45;&gt;3 -->
<g id="edge11" class="edge">
<title>2&#45;&gt;3</title>
<path fill="none" stroke="black" d="M284.34,-206.15C300.28,-207.62 317.4,-211.01 332,-218 351.22,-227.2 368.2,-244.11 380.4,-258.77"/>
<polygon fill="black" stroke="black" points="377.45,-260.68 386.41,-266.33 382.92,-256.32 377.45,-260.68"/>
<text text-anchor="middle" x="317" y="-219.7" font-family="Helvetica,Arial,sans-serif" font-size="14.00">210</text>
</g>
<!-- 2&#45;&gt;3 -->
<g id="edge12" class="edge">
<title>2&#45;&gt;3</title>
<path fill="none" stroke="black" d="M248.76,-225.44C262.13,-238.44 281.68,-255.22 302,-265 313.41,-270.5 326.26,-274.56 338.8,-277.57"/>
<polygon fill="black" stroke="black" points="337.7,-280.91 348.22,-279.63 339.2,-274.08 337.7,-280.91"/>
<text text-anchor="middle" x="317" y="-276.7" font-family="Helvetica,Arial,sans-serif" font-size="14.00">100</text>
</g>
<!-- 3&#45;&gt;2 -->
<g id="edge10" class="edge">
<title>3&#45;&gt;2</title>
<path fill="none" stroke="black" d="M366.79,-267.68C355.81,-261.83 343.47,-255.47 332,-250 317.63,-243.15 301.89,-236.19 287.21,-229.91"/>
<polygon fill="black" stroke="black" points="288.71,-226.75 278.14,-226.07 285.98,-233.19 288.71,-226.75"/>
<text text-anchor="middle" x="317" y="-251.7" font-family="Helvetica,Arial,sans-serif" font-size="14.00">82</text>
</g>
<!-- 3&#45;&gt;4 -->
<g id="edge9" class="edge">
<title>3&#45;&gt;4</title>
<path fill="none" stroke="black" d="M452.58,-299.18C468.05,-303.69 485.01,-309.09 500.25,-315 511.24,-319.26 522.8,-324.45 533.57,-329.62"/>
<polygon fill="black" stroke="black" points="531.72,-332.61 542.24,-333.86 534.8,-326.32 531.72,-332.61"/>
<text text-anchor="middle" x="485.25" y="-316.7" font-family="Helvetica,Arial,sans-serif" font-size="14.00">220</text>
</g>
<!-- 5 -->
<g id="node5" class="node">
<title>5</title>
<polygon fill="none" stroke="black" points="987,-450 896,-450 896,-414 987,-414 987,-450"/>
<text text-anchor="middle" x="941.5" y="-426.2" font-family="Helvetica,Arial,sans-serif" font-size="14.00">Paris Airport</text>
</g>
<!-- 3&#45;&gt;5 -->
<g id="edge13" class="edge">
<title>3&#45;&gt;5</title>
<path fill="none" stroke="black" d="M414.5,-304.27C426.86,-321.28 447.28,-346.31 470.25,-362 489.06,-374.85 496.49,-373.24 518.25,-380 597.41,-404.59 617.13,-413.73 699.25,-425 762.28,-433.65 835.4,-434.5 884.48,-433.76"/>
<polygon fill="black" stroke="black" points="884.35,-437.26 894.29,-433.58 884.22,-430.27 884.35,-437.26"/>
<text text-anchor="middle" x="670" y="-423.7" font-family="Helvetica,Arial,sans-serif" font-size="14.00">170</text>
</g>
<!-- 8 -->
<g id="node8" class="node">
<title>8</title>
<polygon fill="none" stroke="black" points="1339.25,-359 1219.75,-359 1219.75,-323 1339.25,-323 1339.25,-359"/>
<text text-anchor="middle" x="1279.5" y="-335.2" font-family="Helvetica,Arial,sans-serif" font-size="14.00">Instambul Airport</text>
</g>
<!-- 3&#45;&gt;8 -->
<g id="edge15" class="edge">
<title>3&#45;&gt;8</title>
<path fill="none" stroke="black" d="M406.43,-304.28C420.57,-359.21 470.94,-519 578.5,-519 578.5,-519 578.5,-519 1104.38,-519 1186.94,-519 1243.22,-419.93 1266.49,-369.61"/>
<polygon fill="black" stroke="black" points="1269.56,-371.32 1270.45,-360.76 1263.17,-368.45 1269.56,-371.32"/>
<text text-anchor="middle" x="863" y="-520.7" font-family="Helvetica,Arial,sans-serif" font-size="14.00">1023</text>
</g>
<!-- 3&#45;&gt;11 -->
<g id="edge37" class="edge">
<title>3&#45;&gt;11</title>
<path fill="none" stroke="black" d="M417.2,-267.76C430.45,-252.2 450.63,-229.62 470.25,-212 476.96,-205.98 514.91,-178.15 544,-156.99"/>
<polygon fill="black" stroke="black" points="545.82,-159.99 551.86,-151.28 541.71,-154.33 545.82,-159.99"/>
<text text-anchor="middle" x="485.25" y="-213.7" font-family="Helvetica,Arial,sans-serif" font-size="14.00">1702</text>
</g>
<!-- 4&#45;&gt;3 -->
<g id="edge7" class="edge">
<title>4&#45;&gt;3</title>
<path fill="none" stroke="black" d="M565.35,-334.75C551.45,-317.18 527.77,-291.73 500.25,-281 488.87,-276.56 476.19,-275 463.81,-275.05"/>
<polygon fill="black" stroke="black" points="463.94,-271.54 454.09,-275.45 464.23,-278.53 463.94,-271.54"/>
<text text-anchor="middle" x="485.25" y="-282.7" font-family="Helvetica,Arial,sans-serif" font-size="14.00">121</text>
</g>
<!-- 4&#45;&gt;3 -->
<g id="edge8" class="edge">
<title>4&#45;&gt;3</title>
<path fill="none" stroke="black" d="M526.53,-348.59C508.24,-345.82 487.87,-341.32 470.25,-334 456.78,-328.41 443.36,-319.78 432.04,-311.37"/>
<polygon fill="black" stroke="black" points="434.31,-308.7 424.26,-305.36 430.03,-314.24 434.31,-308.7"/>
<text text-anchor="middle" x="485.25" y="-344.7" font-family="Helvetica,Arial,sans-serif" font-size="14.00">310</text>
</g>
<!-- 6 -->
<g id="node6" class="node">
<title>6</title>
<polygon fill="none" stroke="black" points="830,-364 699.25,-364 699.25,-328 830,-328 830,-364"/>
<text text-anchor="middle" x="764.62" y="-340.2" font-family="Helvetica,Arial,sans-serif" font-size="14.00">Amsterdam Airport</text>
</g>
<!-- 4&#45;&gt;6 -->
<g id="edge23" class="edge">
<title>4&#45;&gt;6</title>
<path fill="none" stroke="black" d="M632.49,-351.01C649.56,-350.36 668.91,-349.62 687.4,-348.91"/>
<polygon fill="black" stroke="black" points="687.4,-352.42 697.26,-348.54 687.14,-345.42 687.4,-352.42"/>
<text text-anchor="middle" x="670" y="-350.7" font-family="Helvetica,Arial,sans-serif" font-size="14.00">41</text>
</g>
<!-- 7 -->
<g id="node7" class="node">
<title>7</title>
<polygon fill="none" stroke="black" points="1161.25,-397 1045.5,-397 1045.5,-361 1161.25,-361 1161.25,-397"/>
<text text-anchor="middle" x="1103.38" y="-373.2" font-family="Helvetica,Arial,sans-serif" font-size="14.00">Frankfurt Airport</text>
</g>
<!-- 4&#45;&gt;7 -->
<g id="edge24" class="edge">
<title>4&#45;&gt;7</title>
<path fill="none" stroke="black" d="M632.43,-334.73C652.97,-328.41 676.95,-322.13 699.25,-319 844.11,-298.67 888.72,-296.76 1027.5,-343 1037.86,-346.45 1048.64,-351.01 1058.69,-355.72"/>
<polygon fill="black" stroke="black" points="1056.95,-358.77 1067.48,-359.98 1060.01,-352.47 1056.95,-358.77"/>
<text text-anchor="middle" x="863" y="-307.7" font-family="Helvetica,Arial,sans-serif" font-size="14.00">61</text>
</g>
<!-- 10 -->
<g id="node10" class="node">
<title>10</title>
<polygon fill="none" stroke="black" points="1663.75,-140 1566.75,-140 1566.75,-104 1663.75,-104 1663.75,-140"/>
<text text-anchor="middle" x="1615.25" y="-116.2" font-family="Helvetica,Arial,sans-serif" font-size="14.00">Tokyo Airport</text>
</g>
<!-- 4&#45;&gt;10 -->
<g id="edge25" class="edge">
<title>4&#45;&gt;10</title>
<path fill="none" stroke="black" d="M590.74,-371.27C603.6,-392.23 627.79,-425.67 658.75,-441 680.14,-451.59 1160.98,-476 1189.5,-476 1189.5,-476 1189.5,-476 1454,-476 1596.1,-476 1612.85,-236.33 1614.32,-151.4"/>
<polygon fill="black" stroke="black" points="1617.82,-151.59 1614.43,-141.56 1610.82,-151.52 1617.82,-151.59"/>
<text text-anchor="middle" x="1103.38" y="-475.7" font-family="Helvetica,Arial,sans-serif" font-size="14.00">2210</text>
</g>
<!-- 5&#45;&gt;4 -->
<g id="edge14" class="edge">
<title>5&#45;&gt;4</title>
<path fill="none" stroke="black" d="M895.66,-422.16C832.18,-408.23 715.84,-382.7 643.65,-366.86"/>
<polygon fill="black" stroke="black" points="644.46,-363.45 633.94,-364.73 642.96,-370.29 644.46,-363.45"/>
<text text-anchor="middle" x="764.62" y="-407.7" font-family="Helvetica,Arial,sans-serif" font-size="14.00">104</text>
</g>
<!-- 5&#45;&gt;7 -->
<g id="edge18" class="edge">
<title>5&#45;&gt;7</title>
<path fill="none" stroke="black" d="M987.46,-417.1C1002.54,-412.1 1019.68,-406.41 1036.04,-400.99"/>
<polygon fill="black" stroke="black" points="1036.82,-404.42 1045.21,-397.95 1034.62,-397.77 1036.82,-404.42"/>
<text text-anchor="middle" x="1016.25" y="-411.7" font-family="Helvetica,Arial,sans-serif" font-size="14.00">81</text>
</g>
<!-- 5&#45;&gt;7 -->
<g id="edge19" class="edge">
<title>5&#45;&gt;7</title>
<path fill="none" stroke="black" d="M987.42,-435C1000.59,-434.66 1014.85,-433.08 1027.5,-429 1043.78,-423.75 1059.82,-413.85 1072.86,-404.24"/>
<polygon fill="black" stroke="black" points="1074.8,-407.16 1080.58,-398.28 1070.52,-401.62 1074.8,-407.16"/>
<text text-anchor="middle" x="1016.25" y="-434.7" font-family="Helvetica,Arial,sans-serif" font-size="14.00">110</text>
</g>
<!-- 6&#45;&gt;5 -->
<g id="edge22" class="edge">
<title>6&#45;&gt;5</title>
<path fill="none" stroke="black" d="M821.64,-364.46C840.01,-371.29 860.25,-379.67 878,-389 883.87,-392.09 894.81,-399.41 905.91,-407.15"/>
<polygon fill="black" stroke="black" points="903.74,-409.9 913.93,-412.8 907.77,-404.18 903.74,-409.9"/>
<text text-anchor="middle" x="863" y="-390.7" font-family="Helvetica,Arial,sans-serif" font-size="14.00">72</text>
</g>
<!-- 6&#45;&gt;7 -->
<g id="edge21" class="edge">
<title>6&#45;&gt;7</title>
<path fill="none" stroke="black" d="M830.28,-352.48C851.24,-354.57 874.61,-356.9 896,-359 942.07,-363.53 993.94,-368.56 1034.15,-372.44"/>
<polygon fill="black" stroke="black" points="1033.64,-375.9 1043.93,-373.38 1034.31,-368.94 1033.64,-375.9"/>
<text text-anchor="middle" x="941.5" y="-368.7" font-family="Helvetica,Arial,sans-serif" font-size="14.00">91</text>
</g>
<!-- 7&#45;&gt;6 -->
<g id="edge20" class="edge">
<title>7&#45;&gt;6</title>
<path fill="none" stroke="black" d="M1053.13,-360.57C1032.95,-353.94 1009.15,-347.29 987,-344 925.89,-334.93 909.77,-343.25 848,-344 845.94,-344.02 843.86,-344.05 841.75,-344.08"/>
<polygon fill="black" stroke="black" points="841.83,-340.58 831.89,-344.25 841.95,-347.58 841.83,-340.58"/>
<text text-anchor="middle" x="941.5" y="-345.7" font-family="Helvetica,Arial,sans-serif" font-size="14.00">98</text>
</g>
<!-- 7&#45;&gt;8 -->
<g id="edge17" class="edge">
<title>7&#45;&gt;8</title>
<path fill="none" stroke="black" d="M1131.14,-360.55C1144.86,-352.2 1162.24,-343.26 1179.25,-339 1188.44,-336.7 1198.26,-335.48 1208.02,-334.98"/>
<polygon fill="black" stroke="black" points="1207.98,-338.48 1217.89,-334.74 1207.81,-331.48 1207.98,-338.48"/>
<text text-anchor="middle" x="1190.5" y="-340.7" font-family="Helvetica,Arial,sans-serif" font-size="14.00">424</text>
</g>
<!-- 8&#45;&gt;7 -->
<g id="edge16" class="edge">
<title>8&#45;&gt;7</title>
<path fill="none" stroke="black" d="M1219.26,-353.93C1204.21,-357.21 1187.92,-360.77 1172.47,-364.14"/>
<polygon fill="black" stroke="black" points="1171.89,-360.68 1162.87,-366.23 1173.39,-367.52 1171.89,-360.68"/>
<text text-anchor="middle" x="1190.5" y="-363.7" font-family="Helvetica,Arial,sans-serif" font-size="14.00">481</text>
</g>
<!-- 9 -->
<g id="node9" class="node">
<title>9</title>
<polygon fill="none" stroke="black" points="1500.75,-249 1405.25,-249 1405.25,-213 1500.75,-213 1500.75,-249"/>
<text text-anchor="middle" x="1453" y="-225.2" font-family="Helvetica,Arial,sans-serif" font-size="14.00">Dubai Airport</text>
</g>
<!-- 8&#45;&gt;9 -->
<g id="edge27" class="edge">
<title>8&#45;&gt;9</title>
<path fill="none" stroke="black" d="M1311.09,-322.57C1332.55,-309.52 1361.84,-291.48 1387.25,-275 1396.64,-268.91 1406.7,-262.18 1416.01,-255.86"/>
<polygon fill="black" stroke="black" points="1417.86,-258.84 1424.15,-250.31 1413.91,-253.05 1417.86,-258.84"/>
<text text-anchor="middle" x="1372.25" y="-294.7" font-family="Helvetica,Arial,sans-serif" font-size="14.00">1410</text>
</g>
<!-- 8&#45;&gt;9 -->
<g id="edge28" class="edge">
<title>8&#45;&gt;9</title>
<path fill="none" stroke="black" d="M1339.55,-331.98C1355.9,-327.67 1373.04,-321.33 1387.25,-312 1407.82,-298.5 1424.89,-276.32 1436.32,-258.58"/>
<polygon fill="black" stroke="black" points="1439,-260.9 1441.29,-250.56 1433.05,-257.22 1439,-260.9"/>
<text text-anchor="middle" x="1372.25" y="-327.7" font-family="Helvetica,Arial,sans-serif" font-size="14.00">675</text>
</g>
<!-- 9&#45;&gt;3 -->
<g id="edge29" class="edge">
<title>9&#45;&gt;3</title>
<path fill="none" stroke="black" d="M1405.03,-237.47C1399.05,-238.1 1393.02,-238.63 1387.25,-239 1155.16,-253.73 1096.56,-241 864,-241 578.5,-241 578.5,-241 578.5,-241 537.58,-241 492.93,-252.51 458.8,-263.89"/>
<polygon fill="black" stroke="black" points="457.85,-260.52 449.53,-267.08 460.13,-267.14 457.85,-260.52"/>
<text text-anchor="middle" x="941.5" y="-243.7" font-family="Helvetica,Arial,sans-serif" font-size="14.00">1300</text>
</g>
<!-- 9&#45;&gt;10 -->
<g id="edge36" class="edge">
<title>9&#45;&gt;10</title>
<path fill="none" stroke="black" d="M1481.18,-212.51C1507.74,-194.45 1548.34,-166.83 1577.71,-146.86"/>
<polygon fill="black" stroke="black" points="1579.65,-149.77 1585.95,-141.25 1575.71,-143.98 1579.65,-149.77"/>
<text text-anchor="middle" x="1533.75" y="-187.7" font-family="Helvetica,Arial,sans-serif" font-size="14.00">1981</text>
</g>
<!-- 12 -->
<g id="node12" class="node">
<title>12</title>
<polygon fill="none" stroke="black" points="1332.12,-150 1226.88,-150 1226.88,-114 1332.12,-114 1332.12,-150"/>
<text text-anchor="middle" x="1279.5" y="-126.2" font-family="Helvetica,Arial,sans-serif" font-size="14.00">Sydney Airport</text>
</g>
<!-- 9&#45;&gt;12 -->
<g id="edge30" class="edge">
<title>9&#45;&gt;12</title>
<path fill="none" stroke="black" d="M1441.05,-212.58C1429.76,-195.27 1410.56,-169.97 1387.25,-156 1374.01,-148.06 1358.41,-142.75 1343.3,-139.19"/>
<polygon fill="black" stroke="black" points="1344.4,-135.84 1333.89,-137.21 1342.96,-142.69 1344.4,-135.84"/>
<text text-anchor="middle" x="1372.25" y="-157.7" font-family="Helvetica,Arial,sans-serif" font-size="14.00">3270</text>
</g>
<!-- 9&#45;&gt;12 -->
<g id="edge31" class="edge">
<title>9&#45;&gt;12</title>
<path fill="none" stroke="black" d="M1404.8,-225.4C1388.99,-222.15 1371.71,-217.04 1357.25,-209 1334.98,-196.61 1314.86,-175.88 1300.81,-159.04"/>
<polygon fill="black" stroke="black" points="1303.6,-156.94 1294.6,-151.35 1298.15,-161.33 1303.6,-156.94"/>
<text text-anchor="middle" x="1372.25" y="-221.7" font-family="Helvetica,Arial,sans-serif" font-size="14.00">1870</text>
</g>
<!-- 10&#45;&gt;1 -->
<g id="edge26" class="edge">
<title>10&#45;&gt;1</title>
<path fill="none" stroke="black" d="M1602.36,-103.74C1578.59,-69.7 1521.66,0 1454,0 229.25,0 229.25,0 229.25,0 161.92,0 105.32,-65.76 77.84,-104.45"/>
<polygon fill="black" stroke="black" points="75.16,-102.18 72.36,-112.4 80.92,-106.16 75.16,-102.18"/>
<text text-anchor="middle" x="863" y="-1.7" font-family="Helvetica,Arial,sans-serif" font-size="14.00">1010</text>
</g>
<!-- 10&#45;&gt;12 -->
<g id="edge34" class="edge">
<title>10&#45;&gt;12</title>
<path fill="none" stroke="black" d="M1566.36,-113.73C1546.18,-110.64 1522.39,-107.52 1500.75,-106 1458.41,-103.03 1447.47,-101.65 1405.25,-106 1384.92,-108.1 1363.02,-112.07 1343.32,-116.28"/>
<polygon fill="black" stroke="black" points="1342.81,-112.81 1333.8,-118.38 1344.32,-119.65 1342.81,-112.81"/>
<text text-anchor="middle" x="1453" y="-107.7" font-family="Helvetica,Arial,sans-serif" font-size="14.00">899</text>
</g>
<!-- 10&#45;&gt;12 -->
<g id="edge35" class="edge">
<title>10&#45;&gt;12</title>
<path fill="none" stroke="black" d="M1570.08,-103.51C1549.42,-95.83 1524.23,-87.83 1500.75,-84 1458.86,-77.17 1446.98,-76.25 1405.25,-84 1378.86,-88.9 1350.84,-99.18 1328.06,-108.96"/>
<polygon fill="black" stroke="black" points="1326.78,-105.7 1319.05,-112.94 1329.61,-112.11 1326.78,-105.7"/>
<text text-anchor="middle" x="1453" y="-85.7" font-family="Helvetica,Arial,sans-serif" font-size="14.00">1370</text>
</g>
<!-- 11&#45;&gt;1 -->
<g id="edge3" class="edge">
<title>11&#45;&gt;1</title>
<path fill="none" stroke="black" d="M517.84,-132C421.06,-132 232.22,-132 129.9,-132"/>
<polygon fill="black" stroke="black" points="129.98,-128.5 119.98,-132 129.98,-135.5 129.98,-128.5"/>
<text text-anchor="middle" x="317" y="-133.7" font-family="Helvetica,Arial,sans-serif" font-size="14.00">368</text>
</g>
<!-- 11&#45;&gt;2 -->
<g id="edge38" class="edge">
<title>11&#45;&gt;2</title>
<path fill="none" stroke="black" d="M517.79,-145.11C455.5,-158.57 358.97,-179.41 295.44,-193.14"/>
<polygon fill="black" stroke="black" points="294.88,-189.68 285.85,-195.21 296.36,-196.52 294.88,-189.68"/>
<text text-anchor="middle" x="401.12" y="-181.7" font-family="Helvetica,Arial,sans-serif" font-size="14.00">1510</text>
</g>
<!-- 11&#45;&gt;12 -->
<g id="edge39" class="edge">
<title>11&#45;&gt;12</title>
<path fill="none" stroke="black" d="M641.12,-132C676.79,-132 722.77,-132 763.62,-132 763.62,-132 763.62,-132 1104.38,-132 1141.15,-132 1182.3,-132 1215.35,-132"/>
<polygon fill="black" stroke="black" points="1215.18,-135.5 1225.18,-132 1215.18,-128.5 1215.18,-135.5"/>
<text text-anchor="middle" x="941.5" y="-133.7" font-family="Helvetica,Arial,sans-serif" font-size="14.00">891</text>
</g>
<!-- 12&#45;&gt;9 -->
<g id="edge32" class="edge">
<title>12&#45;&gt;9</title>
<path fill="none" stroke="black" d="M1315.93,-150.49C1336.87,-161.6 1363.79,-176.22 1387.25,-190 1396.09,-195.19 1405.47,-200.97 1414.26,-206.51"/>
<polygon fill="black" stroke="black" points="1412.29,-209.4 1422.61,-211.81 1416.04,-203.5 1412.29,-209.4"/>
<text text-anchor="middle" x="1372.25" y="-191.7" font-family="Helvetica,Arial,sans-serif" font-size="14.00">2017</text>
</g>
<!-- 12&#45;&gt;10 -->
<g id="edge33" class="edge">
<title>12&#45;&gt;10</title>
<path fill="none" stroke="black" d="M1332.28,-130.45C1392.52,-128.64 1491.78,-125.67 1555.03,-123.77"/>
<polygon fill="black" stroke="black" points="1555,-127.28 1564.89,-123.48 1554.79,-120.28 1555,-127.28"/>
<text text-anchor="middle" x="1453" y="-129.7" font-family="Helvetica,Arial,sans-serif" font-size="14.00">980</text>
</g>
</g>
</svg>
